<svg width="320" height="320" viewBox="0 0 200 200" fill="none" xmlns="http://www.w3.org/2000/svg">
<path d="M50 48.8281H150V156.341C150 161.469 145.844 165.625 140.716 165.625H59.2844C54.1563 165.625 50 161.469 50 156.341V48.8281Z" fill="url(#paint0_linear_388_463)"/>
<path d="M150 47.3844V118.266C131.6 102.756 94.8 77.2312 50 75.2531V47.3844C50 40.2031 55.9125 34.375 63.2 34.375H136.8C144.088 34.375 150 40.2031 150 47.3844Z" fill="url(#paint1_linear_388_463)"/>
<path d="M107.047 125.575C106.953 125.672 106.931 125.816 106.978 125.934L110.987 138.222C111.594 140.112 111.128 142.15 109.753 143.562C108.378 144.95 106.372 145.431 104.528 144.784L92.6344 140.594C92.4937 140.547 92.3531 140.569 92.2625 140.641L82.1406 148.353C81.2531 149.025 80.2063 149.384 79.1313 149.384C78.3375 149.384 77.5469 149.194 76.8219 148.784C75.0719 147.875 74.025 146.078 74.0687 144.091L74.2562 131.156C74.2562 131.013 74.2094 130.894 74.0937 130.797L63.8344 123.3C62.25 122.15 61.4781 120.209 61.7812 118.247C62.0844 116.284 63.4375 114.678 65.3031 114.103L77.3344 110.294C77.45 110.269 77.5438 110.15 77.5906 110.031L81.3687 97.6969C81.9531 95.8063 83.5156 94.4156 85.4281 94.1281C87.3625 93.8156 89.2281 94.6313 90.35 96.2594L97.5781 106.847C97.6719 106.966 97.7187 107.037 97.9281 107.037L110.497 106.919H110.566C112.478 106.919 114.203 107.997 115.066 109.769C115.953 111.541 115.766 113.65 114.6 115.228L107.047 125.575Z" fill="url(#paint2_linear_388_463)"/>
<path d="M107.047 125.575C106.953 125.672 106.931 125.816 106.978 125.934L110.987 138.222C111.594 140.112 111.128 142.15 109.753 143.562C108.378 144.95 106.372 145.431 104.528 144.784L92.6344 140.594C92.4937 140.547 92.3531 140.569 92.2625 140.641L82.1406 148.353C81.2531 149.025 80.2063 149.384 79.1313 149.384C78.3375 149.384 77.5469 149.194 76.8219 148.784C75.0719 147.875 74.025 146.078 74.0687 144.091L74.2562 131.156C74.2562 131.013 74.2094 130.894 74.0937 130.797L63.8344 123.3C62.25 122.15 61.4781 120.209 61.7812 118.247C62.0844 116.284 63.4375 114.678 65.3031 114.103L77.3344 110.294C77.45 110.269 77.5438 110.15 77.5906 110.031L81.3687 97.6969C81.9531 95.8063 83.5156 94.4156 85.4281 94.1281C87.3625 93.8156 89.2281 94.6313 90.35 96.2594L97.5781 106.847C97.6719 106.966 97.7187 107.037 97.9281 107.037L110.497 106.919H110.566C112.478 106.919 114.203 107.997 115.066 109.769C115.953 111.541 115.766 113.65 114.6 115.228L107.047 125.575Z" stroke="white" stroke-width="2" stroke-miterlimit="10"/>
<path d="M143.556 178.125H56.4469C46.1062 178.125 37.6969 169.753 37.6969 159.466V40.5344C37.6969 30.2469 46.1062 21.875 56.4469 21.875H143.556C153.897 21.875 162.306 30.2469 162.306 40.5344V159.466C162.306 169.753 153.894 178.125 143.556 178.125ZM56.4469 28.125C49.5531 28.125 43.9469 33.6906 43.9469 40.5344V159.466C43.9469 166.309 49.5531 171.875 56.4469 171.875H143.556C150.45 171.875 156.056 166.309 156.056 159.466V40.5344C156.056 33.6906 150.45 28.125 143.556 28.125H56.4469Z" fill="url(#paint3_linear_388_463)"/>
<path d="M126.306 75.4281L124.581 83.0937C124.063 85.4031 121.122 86.1125 119.603 84.2969L114.569 78.2656C113.966 77.5437 113.047 77.1656 112.112 77.2531L104.291 77.9813C101.934 78.2 100.35 75.6219 101.609 73.6188L105.791 66.9656C106.291 66.1688 106.366 65.1781 105.994 64.3156L102.884 57.1C101.947 54.9281 103.909 52.6219 106.203 53.2L113.822 55.1188C114.734 55.3469 115.7 55.1156 116.403 54.4937L122.303 49.3062C124.081 47.7437 126.878 48.8969 127.038 51.2594L127.566 59.0969C127.628 60.0344 128.15 60.8812 128.956 61.3594L135.713 65.3687C137.747 66.575 137.516 69.5937 135.319 70.475L128.031 73.4062C127.159 73.7562 126.512 74.5125 126.306 75.4281Z" fill="url(#paint4_linear_388_463)"/>
<path d="M126.306 75.4281L124.581 83.0937C124.063 85.4031 121.122 86.1125 119.603 84.2969L114.569 78.2656C113.966 77.5437 113.047 77.1656 112.112 77.2531L104.291 77.9813C101.934 78.2 100.35 75.6219 101.609 73.6188L105.791 66.9656C106.291 66.1688 106.366 65.1781 105.994 64.3156L102.884 57.1C101.947 54.9281 103.909 52.6219 106.203 53.2L113.822 55.1188C114.734 55.3469 115.7 55.1156 116.403 54.4937L122.303 49.3062C124.081 47.7437 126.878 48.8969 127.038 51.2594L127.566 59.0969C127.628 60.0344 128.15 60.8812 128.956 61.3594L135.713 65.3687C137.747 66.575 137.516 69.5937 135.319 70.475L128.031 73.4062C127.159 73.7562 126.512 74.5125 126.306 75.4281Z" stroke="white" stroke-width="2" stroke-miterlimit="10"/>
<defs>
<linearGradient id="paint0_linear_388_463" x1="100" y1="48.8281" x2="100" y2="165.625" gradientUnits="userSpaceOnUse">
<stop stop-color="#1A6DFF"/>
<stop offset="1" stop-color="#C822FF"/>
</linearGradient>
<linearGradient id="paint1_linear_388_463" x1="100" y1="34.375" x2="100" y2="118.266" gradientUnits="userSpaceOnUse">
<stop offset="0.039" stop-color="#6DC7FF"/>
<stop offset="1" stop-color="#E6ABFF"/>
</linearGradient>
<linearGradient id="paint2_linear_388_463" x1="88.6687" y1="94.0625" x2="88.6687" y2="149.384" gradientUnits="userSpaceOnUse">
<stop offset="0.039" stop-color="#6DC7FF"/>
<stop offset="1" stop-color="#E6ABFF"/>
</linearGradient>
<linearGradient id="paint3_linear_388_463" x1="100.003" y1="21.875" x2="100.003" y2="178.125" gradientUnits="userSpaceOnUse">
<stop stop-color="#1A6DFF"/>
<stop offset="1" stop-color="#C822FF"/>
</linearGradient>
<linearGradient id="paint4_linear_388_463" x1="119.137" y1="48.5906" x2="119.137" y2="85.325" gradientUnits="userSpaceOnUse">
<stop stop-color="#1A6DFF"/>
<stop offset="1" stop-color="#C822FF"/>
</linearGradient>
</defs>
</svg>
