<svg width="128" height="128" viewBox="0 0 128 128" fill="none" xmlns="http://www.w3.org/2000/svg">
<g filter="url(#filter0_d_387_423)">
<rect x="4" width="120" height="120" rx="60" fill="white" shape-rendering="crispEdges"/>
<path d="M44.8 79C43.48 79 42.35 78.5227 41.41 77.568C40.47 76.6133 40 75.4656 40 74.125V44.875C40 43.5344 40.47 42.3867 41.41 41.432C42.35 40.4773 43.48 40 44.8 40H59.2L64 44.875H83.2C84.52 44.875 85.65 45.3523 86.59 46.307C87.53 47.2617 88 48.4094 88 49.75V74.125C88 75.4656 87.53 76.6133 86.59 77.568C85.65 78.5227 84.52 79 83.2 79H44.8ZM44.8 74.125H83.2V49.75H62.02L57.22 44.875H44.8V74.125Z" fill="black"/>
</g>
<defs>
<filter id="filter0_d_387_423" x="0" y="0" width="128" height="128" filterUnits="userSpaceOnUse" color-interpolation-filters="sRGB">
<feFlood flood-opacity="0" result="BackgroundImageFix"/>
<feColorMatrix in="SourceAlpha" type="matrix" values="0 0 0 0 0 0 0 0 0 0 0 0 0 0 0 0 0 0 127 0" result="hardAlpha"/>
<feOffset dy="4"/>
<feGaussianBlur stdDeviation="2"/>
<feComposite in2="hardAlpha" operator="out"/>
<feColorMatrix type="matrix" values="0 0 0 0 0 0 0 0 0 0 0 0 0 0 0 0 0 0 0.15 0"/>
<feBlend mode="normal" in2="BackgroundImageFix" result="effect1_dropShadow_387_423"/>
<feBlend mode="normal" in="SourceGraphic" in2="effect1_dropShadow_387_423" result="shape"/>
</filter>
</defs>
</svg>
