<svg width="60" height="60" viewBox="0 0 40 40" fill="none" xmlns="http://www.w3.org/2000/svg">
<path d="M23.3333 26.6666H26.6666V23.3333H30V20H26.6666V16.6666H23.3333V20H20V23.3333H23.3333V26.6666ZM6.66665 33.3333C5.74998 33.3333 4.96526 33.0069 4.31248 32.3541C3.6597 31.7013 3.33331 30.9166 3.33331 30V9.99996C3.33331 9.08329 3.6597 8.29857 4.31248 7.64579C4.96526 6.99301 5.74998 6.66663 6.66665 6.66663H16.6666L20 9.99996H33.3333C34.25 9.99996 35.0347 10.3263 35.6875 10.9791C36.3403 11.6319 36.6666 12.4166 36.6666 13.3333V30C36.6666 30.9166 36.3403 31.7013 35.6875 32.3541C35.0347 33.0069 34.25 33.3333 33.3333 33.3333H6.66665ZM6.66665 30H33.3333V13.3333H18.625L15.2916 9.99996H6.66665V30Z" fill="#646464"/>
</svg>
