<svg width="128" height="128" viewBox="0 0 68 68" fill="none" xmlns="http://www.w3.org/2000/svg">
<g filter="url(#filter0_d_387_421)">
<rect x="4" width="60" height="60" rx="30" fill="#007AFF"/>
<path d="M45.1667 43.6667H23.8333C23.097 43.6667 22.5 43.0697 22.5 42.3333V18.3333C22.5 17.597 23.097 17 23.8333 17H45.1667C45.9031 17 46.5 17.597 46.5 18.3333V42.3333C46.5 43.0697 45.9031 43.6667 45.1667 43.6667ZM43.8333 41V19.6667H25.1667V41H43.8333ZM29.1667 23.6667H39.8333V26.3333H29.1667V23.6667ZM29.1667 29H39.8333V31.6667H29.1667V29ZM29.1667 34.3333H35.8333V37H29.1667V34.3333Z" fill="white"/>
</g>
<defs>
<filter id="filter0_d_387_421" x="0" y="0" width="68" height="68" filterUnits="userSpaceOnUse" color-interpolation-filters="sRGB">
<feFlood flood-opacity="0" result="BackgroundImageFix"/>
<feColorMatrix in="SourceAlpha" type="matrix" values="0 0 0 0 0 0 0 0 0 0 0 0 0 0 0 0 0 0 127 0" result="hardAlpha"/>
<feOffset dy="4"/>
<feGaussianBlur stdDeviation="2"/>
<feComposite in2="hardAlpha" operator="out"/>
<feColorMatrix type="matrix" values="0 0 0 0 0 0 0 0 0 0 0 0 0 0 0 0 0 0 0.15 0"/>
<feBlend mode="normal" in2="BackgroundImageFix" result="effect1_dropShadow_387_421"/>
<feBlend mode="normal" in="SourceGraphic" in2="effect1_dropShadow_387_421" result="shape"/>
</filter>
</defs>
</svg>
